<svg id="visual" viewBox="0 0 960 540" width="960" height="540" xmlns="http://www.w3.org/2000/svg" xmlns:xlink="http://www.w3.org/1999/xlink" version="1.1"><rect x="0" y="0" width="960" height="540" fill="#001220"></rect><defs><linearGradient id="grad1_0" x1="43.8%" y1="100%" x2="100%" y2="0%"><stop offset="14.444444444444446%" stop-color="#ff0066" stop-opacity="1"></stop><stop offset="85.55555555555554%" stop-color="#ff0066" stop-opacity="1"></stop></linearGradient></defs><defs><linearGradient id="grad1_1" x1="43.8%" y1="100%" x2="100%" y2="0%"><stop offset="14.444444444444446%" stop-color="#ff0066" stop-opacity="1"></stop><stop offset="85.55555555555554%" stop-color="#b51f80" stop-opacity="1"></stop></linearGradient></defs><defs><linearGradient id="grad1_2" x1="43.8%" y1="100%" x2="100%" y2="0%"><stop offset="14.444444444444446%" stop-color="#623078" stop-opacity="1"></stop><stop offset="85.55555555555554%" stop-color="#b51f80" stop-opacity="1"></stop></linearGradient></defs><defs><linearGradient id="grad1_3" x1="43.8%" y1="100%" x2="100%" y2="0%"><stop offset="14.444444444444446%" stop-color="#623078" stop-opacity="1"></stop><stop offset="85.55555555555554%" stop-color="#1c2853" stop-opacity="1"></stop></linearGradient></defs><defs><linearGradient id="grad1_4" x1="43.8%" y1="100%" x2="100%" y2="0%"><stop offset="14.444444444444446%" stop-color="#001220" stop-opacity="1"></stop><stop offset="85.55555555555554%" stop-color="#1c2853" stop-opacity="1"></stop></linearGradient></defs><defs><linearGradient id="grad2_0" x1="0%" y1="100%" x2="56.3%" y2="0%"><stop offset="14.444444444444446%" stop-color="#ff0066" stop-opacity="1"></stop><stop offset="85.55555555555554%" stop-color="#ff0066" stop-opacity="1"></stop></linearGradient></defs><defs><linearGradient id="grad2_1" x1="0%" y1="100%" x2="56.3%" y2="0%"><stop offset="14.444444444444446%" stop-color="#b51f80" stop-opacity="1"></stop><stop offset="85.55555555555554%" stop-color="#ff0066" stop-opacity="1"></stop></linearGradient></defs><defs><linearGradient id="grad2_2" x1="0%" y1="100%" x2="56.3%" y2="0%"><stop offset="14.444444444444446%" stop-color="#b51f80" stop-opacity="1"></stop><stop offset="85.55555555555554%" stop-color="#623078" stop-opacity="1"></stop></linearGradient></defs><defs><linearGradient id="grad2_3" x1="0%" y1="100%" x2="56.3%" y2="0%"><stop offset="14.444444444444446%" stop-color="#1c2853" stop-opacity="1"></stop><stop offset="85.55555555555554%" stop-color="#623078" stop-opacity="1"></stop></linearGradient></defs><defs><linearGradient id="grad2_4" x1="0%" y1="100%" x2="56.3%" y2="0%"><stop offset="14.444444444444446%" stop-color="#1c2853" stop-opacity="1"></stop><stop offset="85.55555555555554%" stop-color="#001220" stop-opacity="1"></stop></linearGradient></defs><g transform="translate(960, 540)"><path d="M-378 0C-346.6 -25.1 -315.2 -50.1 -312 -83.6C-308.8 -117 -333.8 -158.9 -327.4 -189C-320.9 -219.1 -283 -237.6 -249.6 -249.6C-216.2 -261.7 -187.2 -267.3 -162 -280.6C-136.8 -293.9 -115.4 -314.8 -89 -332.3C-62.7 -349.8 -31.3 -363.9 0 -378L0 0Z" fill="#051e3a"></path><path d="M-302.4 0C-277.3 -20.1 -252.2 -40.1 -249.6 -66.9C-247 -93.6 -267 -127.1 -261.9 -151.2C-256.7 -175.3 -226.4 -190.1 -199.7 -199.7C-172.9 -209.3 -149.8 -213.9 -129.6 -224.5C-109.4 -235.1 -92.3 -251.8 -71.2 -265.8C-50.1 -279.8 -25.1 -291.1 0 -302.4L0 0Z" fill="#3c2e68"></path><path d="M-226.8 0C-208 -15 -189.1 -30.1 -187.2 -50.2C-185.3 -70.2 -200.3 -95.3 -196.4 -113.4C-192.6 -131.5 -169.8 -142.5 -149.8 -149.8C-129.7 -157 -112.3 -160.4 -97.2 -168.4C-82.1 -176.3 -69.2 -188.9 -53.4 -199.4C-37.6 -209.9 -18.8 -218.3 0 -226.8L0 0Z" fill="#8c2b80"></path><path d="M-151.2 0C-138.6 -10 -126.1 -20.1 -124.8 -33.4C-123.5 -46.8 -133.5 -63.5 -130.9 -75.6C-128.4 -87.7 -113.2 -95 -99.8 -99.8C-86.5 -104.7 -74.9 -106.9 -64.8 -112.2C-54.7 -117.5 -46.2 -125.9 -35.6 -132.9C-25.1 -139.9 -12.5 -145.6 0 -151.2L0 0Z" fill="#dd0977"></path><path d="M-75.6 0C-69.3 -5 -63 -10 -62.4 -16.7C-61.8 -23.4 -66.8 -31.8 -65.5 -37.8C-64.2 -43.8 -56.6 -47.5 -49.9 -49.9C-43.2 -52.3 -37.4 -53.5 -32.4 -56.1C-27.4 -58.8 -23.1 -63 -17.8 -66.5C-12.5 -70 -6.3 -72.8 0 -75.6L0 0Z" fill="#ff0066"></path></g><g transform="translate(0, 0)"><path d="M378 0C365.7 32.2 353.4 64.4 333.2 89.3C313 114.2 284.9 131.9 270.2 156C255.5 180.1 254.1 210.6 244.7 244.7C235.2 278.7 217.5 316.2 189 327.4C160.5 338.5 121.1 323.4 87.7 327.4C54.4 331.5 27.2 354.8 0 378L0 0Z" fill="#051e3a"></path><path d="M302.4 0C292.6 25.7 282.8 51.5 266.6 71.4C250.4 91.4 227.9 105.5 216.2 124.8C204.4 144.1 203.3 168.5 195.7 195.7C188.1 222.9 174 252.9 151.2 261.9C128.4 270.8 96.8 258.7 70.2 262C43.5 265.2 21.8 283.8 0 302.4L0 0Z" fill="#3c2e68"></path><path d="M226.8 0C219.4 19.3 212.1 38.6 199.9 53.6C187.8 68.5 171 79.1 162.1 93.6C153.3 108.1 152.5 126.4 146.8 146.8C141.1 167.2 130.5 189.7 113.4 196.4C96.3 203.1 72.6 194 52.6 196.5C32.7 198.9 16.3 212.9 0 226.8L0 0Z" fill="#8c2b80"></path><path d="M151.2 0C146.3 12.9 141.4 25.7 133.3 35.7C125.2 45.7 114 52.8 108.1 62.4C102.2 72 101.7 84.3 97.9 97.9C94.1 111.5 87 126.5 75.6 130.9C64.2 135.4 48.4 129.4 35.1 131C21.8 132.6 10.9 141.9 0 151.2L0 0Z" fill="#dd0977"></path><path d="M75.6 0C73.1 6.4 70.7 12.9 66.6 17.9C62.6 22.8 57 26.4 54 31.2C51.1 36 50.8 42.1 48.9 48.9C47 55.7 43.5 63.2 37.8 65.5C32.1 67.7 24.2 64.7 17.5 65.5C10.9 66.3 5.4 71 0 75.6L0 0Z" fill="#ff0066"></path></g></svg>