<svg id="visual" viewBox="0 0 960 540" width="960" height="540" xmlns="http://www.w3.org/2000/svg" xmlns:xlink="http://www.w3.org/1999/xlink" version="1.1"><rect x="0" y="0" width="960" height="540" fill="#001220"></rect><path d="M0 380L22.8 378.7C45.7 377.3 91.3 374.7 137 370C182.7 365.3 228.3 358.7 274 355.7C319.7 352.7 365.3 353.3 411.2 358.2C457 363 503 372 548.8 378.8C594.7 385.7 640.3 390.3 686 385C731.7 379.7 777.3 364.3 823 364C868.7 363.7 914.3 378.3 937.2 385.7L960 393L960 541L937.2 541C914.3 541 868.7 541 823 541C777.3 541 731.7 541 686 541C640.3 541 594.7 541 548.8 541C503 541 457 541 411.2 541C365.3 541 319.7 541 274 541C228.3 541 182.7 541 137 541C91.3 541 45.7 541 22.8 541L0 541Z" fill="#fa7268"></path><path d="M0 381L22.8 377.5C45.7 374 91.3 367 137 364.5C182.7 362 228.3 364 274 365.5C319.7 367 365.3 368 411.2 372.5C457 377 503 385 548.8 393.2C594.7 401.3 640.3 409.7 686 413.3C731.7 417 777.3 416 823 405.3C868.7 394.7 914.3 374.3 937.2 364.2L960 354L960 541L937.2 541C914.3 541 868.7 541 823 541C777.3 541 731.7 541 686 541C640.3 541 594.7 541 548.8 541C503 541 457 541 411.2 541C365.3 541 319.7 541 274 541C228.3 541 182.7 541 137 541C91.3 541 45.7 541 22.8 541L0 541Z" fill="#fb5487"></path><path d="M0 415L22.8 413.3C45.7 411.7 91.3 408.3 137 405.2C182.7 402 228.3 399 274 400.7C319.7 402.3 365.3 408.7 411.2 418.7C457 428.7 503 442.3 548.8 444.7C594.7 447 640.3 438 686 429.7C731.7 421.3 777.3 413.7 823 413.3C868.7 413 914.3 420 937.2 423.5L960 427L960 541L937.2 541C914.3 541 868.7 541 823 541C777.3 541 731.7 541 686 541C640.3 541 594.7 541 548.8 541C503 541 457 541 411.2 541C365.3 541 319.7 541 274 541C228.3 541 182.7 541 137 541C91.3 541 45.7 541 22.8 541L0 541Z" fill="#e645b0"></path><path d="M0 480L22.8 480.5C45.7 481 91.3 482 137 477.8C182.7 473.7 228.3 464.3 274 464.5C319.7 464.7 365.3 474.3 411.2 473.2C457 472 503 460 548.8 454.2C594.7 448.3 640.3 448.7 686 451.5C731.7 454.3 777.3 459.7 823 464.7C868.7 469.7 914.3 474.3 937.2 476.7L960 479L960 541L937.2 541C914.3 541 868.7 541 823 541C777.3 541 731.7 541 686 541C640.3 541 594.7 541 548.8 541C503 541 457 541 411.2 541C365.3 541 319.7 541 274 541C228.3 541 182.7 541 137 541C91.3 541 45.7 541 22.8 541L0 541Z" fill="#b050dc"></path><path d="M0 473L22.8 476C45.7 479 91.3 485 137 490.2C182.7 495.3 228.3 499.7 274 502.2C319.7 504.7 365.3 505.3 411.2 507.3C457 509.3 503 512.7 548.8 508.5C594.7 504.3 640.3 492.7 686 489.7C731.7 486.7 777.3 492.3 823 497.8C868.7 503.3 914.3 508.7 937.2 511.3L960 514L960 541L937.2 541C914.3 541 868.7 541 823 541C777.3 541 731.7 541 686 541C640.3 541 594.7 541 548.8 541C503 541 457 541 411.2 541C365.3 541 319.7 541 274 541C228.3 541 182.7 541 137 541C91.3 541 45.7 541 22.8 541L0 541Z" fill="#0066ff"></path></svg>