<svg id="visual" viewBox="0 0 960 540" width="960" height="540" xmlns="http://www.w3.org/2000/svg" xmlns:xlink="http://www.w3.org/1999/xlink" version="1.1"><rect x="0" y="0" width="960" height="540" fill="#001220"></rect><path d="M0 219L12.3 221.5C24.7 224 49.3 229 74 219.3C98.7 209.7 123.3 185.3 148 176.8C172.7 168.3 197.3 175.7 221.8 185.2C246.3 194.7 270.7 206.3 295.2 208.8C319.7 211.3 344.3 204.7 369 207.2C393.7 209.7 418.3 221.3 443 225.2C467.7 229 492.3 225 517 214.2C541.7 203.3 566.3 185.7 591 189C615.7 192.3 640.3 216.7 664.8 228.8C689.3 241 713.7 241 738.2 243.2C762.7 245.3 787.3 249.7 812 236.2C836.7 222.7 861.3 191.3 886 186C910.7 180.7 935.3 201.3 947.7 211.7L960 222L960 0L947.7 0C935.3 0 910.7 0 886 0C861.3 0 836.7 0 812 0C787.3 0 762.7 0 738.2 0C713.7 0 689.3 0 664.8 0C640.3 0 615.7 0 591 0C566.3 0 541.7 0 517 0C492.3 0 467.7 0 443 0C418.3 0 393.7 0 369 0C344.3 0 319.7 0 295.2 0C270.7 0 246.3 0 221.8 0C197.3 0 172.7 0 148 0C123.3 0 98.7 0 74 0C49.3 0 24.7 0 12.3 0L0 0Z" fill="#e800ff"></path><path d="M0 222L12.3 216.3C24.7 210.7 49.3 199.3 74 199.8C98.7 200.3 123.3 212.7 148 207.8C172.7 203 197.3 181 221.8 183C246.3 185 270.7 211 295.2 217C319.7 223 344.3 209 369 206.3C393.7 203.7 418.3 212.3 443 208.2C467.7 204 492.3 187 517 182.2C541.7 177.3 566.3 184.7 591 190.5C615.7 196.3 640.3 200.7 664.8 202.5C689.3 204.3 713.7 203.7 738.2 207C762.7 210.3 787.3 217.7 812 220.7C836.7 223.7 861.3 222.3 886 220.2C910.7 218 935.3 215 947.7 213.5L960 212L960 0L947.7 0C935.3 0 910.7 0 886 0C861.3 0 836.7 0 812 0C787.3 0 762.7 0 738.2 0C713.7 0 689.3 0 664.8 0C640.3 0 615.7 0 591 0C566.3 0 541.7 0 517 0C492.3 0 467.7 0 443 0C418.3 0 393.7 0 369 0C344.3 0 319.7 0 295.2 0C270.7 0 246.3 0 221.8 0C197.3 0 172.7 0 148 0C123.3 0 98.7 0 74 0C49.3 0 24.7 0 12.3 0L0 0Z" fill="#d42cff"></path><path d="M0 196L12.3 196.8C24.7 197.7 49.3 199.3 74 194.2C98.7 189 123.3 177 148 173.5C172.7 170 197.3 175 221.8 171.5C246.3 168 270.7 156 295.2 158.5C319.7 161 344.3 178 369 181.7C393.7 185.3 418.3 175.7 443 173.5C467.7 171.3 492.3 176.7 517 170.7C541.7 164.7 566.3 147.3 591 137.8C615.7 128.3 640.3 126.7 664.8 130.5C689.3 134.3 713.7 143.7 738.2 143.2C762.7 142.7 787.3 132.3 812 130.8C836.7 129.3 861.3 136.7 886 138C910.7 139.3 935.3 134.7 947.7 132.3L960 130L960 0L947.7 0C935.3 0 910.7 0 886 0C861.3 0 836.7 0 812 0C787.3 0 762.7 0 738.2 0C713.7 0 689.3 0 664.8 0C640.3 0 615.7 0 591 0C566.3 0 541.7 0 517 0C492.3 0 467.7 0 443 0C418.3 0 393.7 0 369 0C344.3 0 319.7 0 295.2 0C270.7 0 246.3 0 221.8 0C197.3 0 172.7 0 148 0C123.3 0 98.7 0 74 0C49.3 0 24.7 0 12.3 0L0 0Z" fill="#bf3eff"></path><path d="M0 158L12.3 159.2C24.7 160.3 49.3 162.7 74 161.7C98.7 160.7 123.3 156.3 148 152.8C172.7 149.3 197.3 146.7 221.8 142.7C246.3 138.7 270.7 133.3 295.2 136.2C319.7 139 344.3 150 369 156.3C393.7 162.7 418.3 164.3 443 164.5C467.7 164.7 492.3 163.3 517 153.5C541.7 143.7 566.3 125.3 591 128.3C615.7 131.3 640.3 155.7 664.8 156.5C689.3 157.3 713.7 134.7 738.2 129.2C762.7 123.7 787.3 135.3 812 142.7C836.7 150 861.3 153 886 150.2C910.7 147.3 935.3 138.7 947.7 134.3L960 130L960 0L947.7 0C935.3 0 910.7 0 886 0C861.3 0 836.7 0 812 0C787.3 0 762.7 0 738.2 0C713.7 0 689.3 0 664.8 0C640.3 0 615.7 0 591 0C566.3 0 541.7 0 517 0C492.3 0 467.7 0 443 0C418.3 0 393.7 0 369 0C344.3 0 319.7 0 295.2 0C270.7 0 246.3 0 221.8 0C197.3 0 172.7 0 148 0C123.3 0 98.7 0 74 0C49.3 0 24.7 0 12.3 0L0 0Z" fill="#aa4aff"></path><path d="M0 157L12.3 151.2C24.7 145.3 49.3 133.7 74 124.8C98.7 116 123.3 110 148 104.8C172.7 99.7 197.3 95.3 221.8 95.2C246.3 95 270.7 99 295.2 99.5C319.7 100 344.3 97 369 102.7C393.7 108.3 418.3 122.7 443 128.3C467.7 134 492.3 131 517 126C541.7 121 566.3 114 591 115.2C615.7 116.3 640.3 125.7 664.8 124C689.3 122.3 713.7 109.7 738.2 104.2C762.7 98.7 787.3 100.3 812 109.7C836.7 119 861.3 136 886 136C910.7 136 935.3 119 947.7 110.5L960 102L960 0L947.7 0C935.3 0 910.7 0 886 0C861.3 0 836.7 0 812 0C787.3 0 762.7 0 738.2 0C713.7 0 689.3 0 664.8 0C640.3 0 615.7 0 591 0C566.3 0 541.7 0 517 0C492.3 0 467.7 0 443 0C418.3 0 393.7 0 369 0C344.3 0 319.7 0 295.2 0C270.7 0 246.3 0 221.8 0C197.3 0 172.7 0 148 0C123.3 0 98.7 0 74 0C49.3 0 24.7 0 12.3 0L0 0Z" fill="#9552ff"></path><path d="M0 122L12.3 117.3C24.7 112.7 49.3 103.3 74 97.5C98.7 91.7 123.3 89.3 148 86C172.7 82.7 197.3 78.3 221.8 79.3C246.3 80.3 270.7 86.7 295.2 88.2C319.7 89.7 344.3 86.3 369 84.3C393.7 82.3 418.3 81.7 443 86.7C467.7 91.7 492.3 102.3 517 110C541.7 117.7 566.3 122.3 591 116.5C615.7 110.7 640.3 94.3 664.8 86.8C689.3 79.3 713.7 80.7 738.2 83C762.7 85.3 787.3 88.7 812 87.7C836.7 86.7 861.3 81.3 886 87C910.7 92.7 935.3 109.3 947.7 117.7L960 126L960 0L947.7 0C935.3 0 910.7 0 886 0C861.3 0 836.7 0 812 0C787.3 0 762.7 0 738.2 0C713.7 0 689.3 0 664.8 0C640.3 0 615.7 0 591 0C566.3 0 541.7 0 517 0C492.3 0 467.7 0 443 0C418.3 0 393.7 0 369 0C344.3 0 319.7 0 295.2 0C270.7 0 246.3 0 221.8 0C197.3 0 172.7 0 148 0C123.3 0 98.7 0 74 0C49.3 0 24.7 0 12.3 0L0 0Z" fill="#7f59ff"></path><path d="M0 78L12.3 81.3C24.7 84.7 49.3 91.3 74 92.5C98.7 93.7 123.3 89.3 148 82.8C172.7 76.3 197.3 67.7 221.8 63.3C246.3 59 270.7 59 295.2 64.8C319.7 70.7 344.3 82.3 369 88.2C393.7 94 418.3 94 443 92.3C467.7 90.7 492.3 87.3 517 83.8C541.7 80.3 566.3 76.7 591 79.2C615.7 81.7 640.3 90.3 664.8 91C689.3 91.7 713.7 84.3 738.2 81.8C762.7 79.3 787.3 81.7 812 77.3C836.7 73 861.3 62 886 60.5C910.7 59 935.3 67 947.7 71L960 75L960 0L947.7 0C935.3 0 910.7 0 886 0C861.3 0 836.7 0 812 0C787.3 0 762.7 0 738.2 0C713.7 0 689.3 0 664.8 0C640.3 0 615.7 0 591 0C566.3 0 541.7 0 517 0C492.3 0 467.7 0 443 0C418.3 0 393.7 0 369 0C344.3 0 319.7 0 295.2 0C270.7 0 246.3 0 221.8 0C197.3 0 172.7 0 148 0C123.3 0 98.7 0 74 0C49.3 0 24.7 0 12.3 0L0 0Z" fill="#655eff"></path><path d="M0 64L12.3 63.2C24.7 62.3 49.3 60.7 74 61.3C98.7 62 123.3 65 148 66.5C172.7 68 197.3 68 221.8 63.5C246.3 59 270.7 50 295.2 44.8C319.7 39.7 344.3 38.3 369 41.2C393.7 44 418.3 51 443 50.5C467.7 50 492.3 42 517 39.7C541.7 37.3 566.3 40.7 591 45.3C615.7 50 640.3 56 664.8 54.3C689.3 52.7 713.7 43.3 738.2 39.7C762.7 36 787.3 38 812 44C836.7 50 861.3 60 886 63C910.7 66 935.3 62 947.7 60L960 58L960 0L947.7 0C935.3 0 910.7 0 886 0C861.3 0 836.7 0 812 0C787.3 0 762.7 0 738.2 0C713.7 0 689.3 0 664.8 0C640.3 0 615.7 0 591 0C566.3 0 541.7 0 517 0C492.3 0 467.7 0 443 0C418.3 0 393.7 0 369 0C344.3 0 319.7 0 295.2 0C270.7 0 246.3 0 221.8 0C197.3 0 172.7 0 148 0C123.3 0 98.7 0 74 0C49.3 0 24.7 0 12.3 0L0 0Z" fill="#4662ff"></path><path d="M0 29L12.3 31.3C24.7 33.7 49.3 38.3 74 37C98.7 35.7 123.3 28.3 148 26C172.7 23.7 197.3 26.3 221.8 28C246.3 29.7 270.7 30.3 295.2 31.3C319.7 32.3 344.3 33.7 369 34.2C393.7 34.7 418.3 34.3 443 31.8C467.7 29.3 492.3 24.7 517 26C541.7 27.3 566.3 34.7 591 34.2C615.7 33.7 640.3 25.3 664.8 24C689.3 22.7 713.7 28.3 738.2 29.5C762.7 30.7 787.3 27.3 812 26.5C836.7 25.7 861.3 27.3 886 29.7C910.7 32 935.3 35 947.7 36.5L960 38L960 0L947.7 0C935.3 0 910.7 0 886 0C861.3 0 836.7 0 812 0C787.3 0 762.7 0 738.2 0C713.7 0 689.3 0 664.8 0C640.3 0 615.7 0 591 0C566.3 0 541.7 0 517 0C492.3 0 467.7 0 443 0C418.3 0 393.7 0 369 0C344.3 0 319.7 0 295.2 0C270.7 0 246.3 0 221.8 0C197.3 0 172.7 0 148 0C123.3 0 98.7 0 74 0C49.3 0 24.7 0 12.3 0L0 0Z" fill="#0066ff"></path></svg>