<svg id="visual" viewBox="0 0 960 540" width="960" height="540" xmlns="http://www.w3.org/2000/svg" xmlns:xlink="http://www.w3.org/1999/xlink" version="1.1"><path d="M0 50L7.3 47.2C14.7 44.3 29.3 38.7 43.8 41.3C58.3 44 72.7 55 87.2 55C101.7 55 116.3 44 131 44C145.7 44 160.3 55 174.8 55C189.3 55 203.7 44 218.2 42.2C232.7 40.3 247.3 47.7 261.8 46.8C276.3 46 290.7 37 305.2 35.2C319.7 33.3 334.3 38.7 349 43.2C363.7 47.7 378.3 51.3 392.8 54C407.3 56.7 421.7 58.3 436.2 60.2C450.7 62 465.3 64 480 65C494.7 66 509.3 66 523.8 61.5C538.3 57 552.7 48 567.2 44.3C581.7 40.7 596.3 42.3 611 45.8C625.7 49.3 640.3 54.7 654.8 52.8C669.3 51 683.7 42 698.2 40.3C712.7 38.7 727.3 44.3 741.8 48.8C756.3 53.3 770.7 56.7 785.2 53C799.7 49.3 814.3 38.7 829 37C843.7 35.3 858.3 42.7 872.8 42.7C887.3 42.7 901.7 35.3 916.2 32.5C930.7 29.7 945.3 31.3 952.7 32.2L960 33L960 0L952.7 0C945.3 0 930.7 0 916.2 0C901.7 0 887.3 0 872.8 0C858.3 0 843.7 0 829 0C814.3 0 799.7 0 785.2 0C770.7 0 756.3 0 741.8 0C727.3 0 712.7 0 698.2 0C683.7 0 669.3 0 654.8 0C640.3 0 625.7 0 611 0C596.3 0 581.7 0 567.2 0C552.7 0 538.3 0 523.8 0C509.3 0 494.7 0 480 0C465.3 0 450.7 0 436.2 0C421.7 0 407.3 0 392.8 0C378.3 0 363.7 0 349 0C334.3 0 319.7 0 305.2 0C290.7 0 276.3 0 261.8 0C247.3 0 232.7 0 218.2 0C203.7 0 189.3 0 174.8 0C160.3 0 145.7 0 131 0C116.3 0 101.7 0 87.2 0C72.7 0 58.3 0 43.8 0C29.3 0 14.7 0 7.3 0L0 0Z" fill="#ff0066"></path><path d="M0 109L7.3 108.2C14.7 107.3 29.3 105.7 43.8 112.8C58.3 120 72.7 136 87.2 135C101.7 134 116.3 116 131 112.5C145.7 109 160.3 120 174.8 126.3C189.3 132.7 203.7 134.3 218.2 136C232.7 137.7 247.3 139.3 261.8 129.5C276.3 119.7 290.7 98.3 305.2 89.3C319.7 80.3 334.3 83.7 349 95.3C363.7 107 378.3 127 392.8 137C407.3 147 421.7 147 436.2 143.3C450.7 139.7 465.3 132.3 480 129.7C494.7 127 509.3 129 523.8 130C538.3 131 552.7 131 567.2 130C581.7 129 596.3 127 611 129.7C625.7 132.3 640.3 139.7 654.8 135.2C669.3 130.7 683.7 114.3 698.2 113.3C712.7 112.3 727.3 126.7 741.8 132.2C756.3 137.7 770.7 134.3 785.2 127.2C799.7 120 814.3 109 829 109.8C843.7 110.7 858.3 123.3 872.8 118.8C887.3 114.3 901.7 92.7 916.2 88.2C930.7 83.7 945.3 96.3 952.7 102.7L960 109L960 31L952.7 30.2C945.3 29.3 930.7 27.7 916.2 30.5C901.7 33.3 887.3 40.7 872.8 40.7C858.3 40.7 843.7 33.3 829 35C814.3 36.7 799.7 47.3 785.2 51C770.7 54.7 756.3 51.3 741.8 46.8C727.3 42.3 712.7 36.7 698.2 38.3C683.7 40 669.3 49 654.8 50.8C640.3 52.7 625.7 47.3 611 43.8C596.3 40.3 581.7 38.7 567.2 42.3C552.7 46 538.3 55 523.8 59.5C509.3 64 494.7 64 480 63C465.3 62 450.7 60 436.2 58.2C421.7 56.3 407.3 54.7 392.8 52C378.3 49.3 363.7 45.7 349 41.2C334.3 36.7 319.7 31.3 305.2 33.2C290.7 35 276.3 44 261.8 44.8C247.3 45.7 232.7 38.3 218.2 40.2C203.7 42 189.3 53 174.8 53C160.3 53 145.7 42 131 42C116.3 42 101.7 53 87.2 53C72.7 53 58.3 42 43.8 39.3C29.3 36.7 14.7 42.3 7.3 45.2L0 48Z" fill="#ad066c"></path><path d="M0 152L7.3 151.2C14.7 150.3 29.3 148.7 43.8 153.2C58.3 157.7 72.7 168.3 87.2 165.7C101.7 163 116.3 147 131 143.5C145.7 140 160.3 149 174.8 156.2C189.3 163.3 203.7 168.7 218.2 173.2C232.7 177.7 247.3 181.3 261.8 170.5C276.3 159.7 290.7 134.3 305.2 123.5C319.7 112.7 334.3 116.3 349 128C363.7 139.7 378.3 159.3 392.8 171C407.3 182.7 421.7 186.3 436.2 181C450.7 175.7 465.3 161.3 480 156C494.7 150.7 509.3 154.3 523.8 157C538.3 159.7 552.7 161.3 567.2 159.5C581.7 157.7 596.3 152.3 611 155C625.7 157.7 640.3 168.3 654.8 163.8C669.3 159.3 683.7 139.7 698.2 140.7C712.7 141.7 727.3 163.3 741.8 171.3C756.3 179.3 770.7 173.7 785.2 162.8C799.7 152 814.3 136 829 137.8C843.7 139.7 858.3 159.3 872.8 156.7C887.3 154 901.7 129 916.2 120C930.7 111 945.3 118 952.7 121.5L960 125L960 107L952.7 100.7C945.3 94.3 930.7 81.7 916.2 86.2C901.7 90.7 887.3 112.3 872.8 116.8C858.3 121.3 843.7 108.7 829 107.8C814.3 107 799.7 118 785.2 125.2C770.7 132.3 756.3 135.7 741.8 130.2C727.3 124.7 712.7 110.3 698.2 111.3C683.7 112.3 669.3 128.7 654.8 133.2C640.3 137.7 625.7 130.3 611 127.7C596.3 125 581.7 127 567.2 128C552.7 129 538.3 129 523.8 128C509.3 127 494.7 125 480 127.7C465.3 130.3 450.7 137.7 436.2 141.3C421.7 145 407.3 145 392.8 135C378.3 125 363.7 105 349 93.3C334.3 81.7 319.7 78.3 305.2 87.3C290.7 96.3 276.3 117.7 261.8 127.5C247.3 137.3 232.7 135.7 218.2 134C203.7 132.3 189.3 130.7 174.8 124.3C160.3 118 145.7 107 131 110.5C116.3 114 101.7 132 87.2 133C72.7 134 58.3 118 43.8 110.8C29.3 103.7 14.7 105.3 7.3 106.2L0 107Z" fill="#5a1658"></path><path d="M0 293L7.3 291.2C14.7 289.3 29.3 285.7 43.8 283.8C58.3 282 72.7 282 87.2 282.8C101.7 283.7 116.3 285.3 131 277.2C145.7 269 160.3 251 174.8 250.2C189.3 249.3 203.7 265.7 218.2 281.8C232.7 298 247.3 314 261.8 301.3C276.3 288.7 290.7 247.3 305.2 238.3C319.7 229.3 334.3 252.7 349 266.2C363.7 279.7 378.3 283.3 392.8 289.7C407.3 296 421.7 305 436.2 304.2C450.7 303.3 465.3 292.7 480 285.5C494.7 278.3 509.3 274.7 523.8 266.5C538.3 258.3 552.7 245.7 567.2 242C581.7 238.3 596.3 243.7 611 250.8C625.7 258 640.3 267 654.8 277.8C669.3 288.7 683.7 301.3 698.2 305C712.7 308.7 727.3 303.3 741.8 296.2C756.3 289 770.7 280 785.2 277.3C799.7 274.7 814.3 278.3 829 286.5C843.7 294.7 858.3 307.3 872.8 303.7C887.3 300 901.7 280 916.2 271C930.7 262 945.3 264 952.7 265L960 266L960 123L952.7 119.5C945.3 116 930.7 109 916.2 118C901.7 127 887.3 152 872.8 154.7C858.3 157.3 843.7 137.7 829 135.8C814.3 134 799.7 150 785.2 160.8C770.7 171.7 756.3 177.3 741.8 169.3C727.3 161.3 712.7 139.7 698.2 138.7C683.7 137.7 669.3 157.3 654.8 161.8C640.3 166.3 625.7 155.7 611 153C596.3 150.3 581.7 155.7 567.2 157.5C552.7 159.3 538.3 157.7 523.8 155C509.3 152.3 494.7 148.7 480 154C465.3 159.3 450.7 173.7 436.2 179C421.7 184.3 407.3 180.7 392.8 169C378.3 157.3 363.7 137.7 349 126C334.3 114.3 319.7 110.7 305.2 121.5C290.7 132.3 276.3 157.7 261.8 168.5C247.3 179.3 232.7 175.7 218.2 171.2C203.7 166.7 189.3 161.3 174.8 154.2C160.3 147 145.7 138 131 141.5C116.3 145 101.7 161 87.2 163.7C72.7 166.3 58.3 155.7 43.8 151.2C29.3 146.7 14.7 148.3 7.3 149.2L0 150Z" fill="#180a2e"></path><path d="M0 352L7.3 345.7C14.7 339.3 29.3 326.7 43.8 325.8C58.3 325 72.7 336 87.2 344.2C101.7 352.3 116.3 357.7 131 346.8C145.7 336 160.3 309 174.8 300.8C189.3 292.7 203.7 303.3 218.2 319.5C232.7 335.7 247.3 357.3 261.8 346.5C276.3 335.7 290.7 292.3 305.2 283.3C319.7 274.3 334.3 299.7 349 311.5C363.7 323.3 378.3 321.7 392.8 330.7C407.3 339.7 421.7 359.3 436.2 365.5C450.7 371.7 465.3 364.3 480 352.7C494.7 341 509.3 325 523.8 317C538.3 309 552.7 309 567.2 308C581.7 307 596.3 305 611 305.8C625.7 306.7 640.3 310.3 654.8 318.5C669.3 326.7 683.7 339.3 698.2 347.5C712.7 355.7 727.3 359.3 741.8 353C756.3 346.7 770.7 330.3 785.2 324.8C799.7 319.3 814.3 324.7 829 336.3C843.7 348 858.3 366 872.8 367C887.3 368 901.7 352 916.2 339.5C930.7 327 945.3 318 952.7 313.5L960 309L960 264L952.7 263C945.3 262 930.7 260 916.2 269C901.7 278 887.3 298 872.8 301.7C858.3 305.3 843.7 292.7 829 284.5C814.3 276.3 799.7 272.7 785.2 275.3C770.7 278 756.3 287 741.8 294.2C727.3 301.3 712.7 306.7 698.2 303C683.7 299.3 669.3 286.7 654.8 275.8C640.3 265 625.7 256 611 248.8C596.3 241.7 581.7 236.3 567.2 240C552.7 243.7 538.3 256.3 523.8 264.5C509.3 272.7 494.7 276.3 480 283.5C465.3 290.7 450.7 301.3 436.2 302.2C421.7 303 407.3 294 392.8 287.7C378.3 281.3 363.7 277.7 349 264.2C334.3 250.7 319.7 227.3 305.2 236.3C290.7 245.3 276.3 286.7 261.8 299.3C247.3 312 232.7 296 218.2 279.8C203.7 263.7 189.3 247.3 174.8 248.2C160.3 249 145.7 267 131 275.2C116.3 283.3 101.7 281.7 87.2 280.8C72.7 280 58.3 280 43.8 281.8C29.3 283.7 14.7 287.3 7.3 289.2L0 291Z" fill="#0f0124"></path><path d="M0 455L7.3 452.2C14.7 449.3 29.3 443.7 43.8 440.8C58.3 438 72.7 438 87.2 439C101.7 440 116.3 442 131 441.2C145.7 440.3 160.3 436.7 174.8 437.5C189.3 438.3 203.7 443.7 218.2 447.3C232.7 451 247.3 453 261.8 449.5C276.3 446 290.7 437 305.2 433.3C319.7 429.7 334.3 431.3 349 427.7C363.7 424 378.3 415 392.8 415C407.3 415 421.7 424 436.2 429.3C450.7 434.7 465.3 436.3 480 439C494.7 441.7 509.3 445.3 523.8 444.5C538.3 443.7 552.7 438.3 567.2 433.8C581.7 429.3 596.3 425.7 611 424.8C625.7 424 640.3 426 654.8 431.5C669.3 437 683.7 446 698.2 453.2C712.7 460.3 727.3 465.7 741.8 462.8C756.3 460 770.7 449 785.2 443.5C799.7 438 814.3 438 829 439C843.7 440 858.3 442 872.8 437.5C887.3 433 901.7 422 916.2 416.5C930.7 411 945.3 411 952.7 411L960 411L960 307L952.7 311.5C945.3 316 930.7 325 916.2 337.5C901.7 350 887.3 366 872.8 365C858.3 364 843.7 346 829 334.3C814.3 322.7 799.7 317.3 785.2 322.8C770.7 328.3 756.3 344.7 741.8 351C727.3 357.3 712.7 353.7 698.2 345.5C683.7 337.3 669.3 324.7 654.8 316.5C640.3 308.3 625.7 304.7 611 303.8C596.3 303 581.7 305 567.2 306C552.7 307 538.3 307 523.8 315C509.3 323 494.7 339 480 350.7C465.3 362.3 450.7 369.7 436.2 363.5C421.7 357.3 407.3 337.7 392.8 328.7C378.3 319.7 363.7 321.3 349 309.5C334.3 297.7 319.7 272.3 305.2 281.3C290.7 290.3 276.3 333.7 261.8 344.5C247.3 355.3 232.7 333.7 218.2 317.5C203.7 301.3 189.3 290.7 174.8 298.8C160.3 307 145.7 334 131 344.8C116.3 355.7 101.7 350.3 87.2 342.2C72.7 334 58.3 323 43.8 323.8C29.3 324.7 14.7 337.3 7.3 343.7L0 350Z" fill="#180a2e"></path><path d="M0 471L7.3 470C14.7 469 29.3 467 43.8 466C58.3 465 72.7 465 87.2 466C101.7 467 116.3 469 131 469C145.7 469 160.3 467 174.8 466C189.3 465 203.7 465 218.2 466.8C232.7 468.7 247.3 472.3 261.8 470.7C276.3 469 290.7 462 305.2 461.2C319.7 460.3 334.3 465.7 349 463.8C363.7 462 378.3 453 392.8 449.3C407.3 445.7 421.7 447.3 436.2 450C450.7 452.7 465.3 456.3 480 460.8C494.7 465.3 509.3 470.7 523.8 469.8C538.3 469 552.7 462 567.2 459.3C581.7 456.7 596.3 458.3 611 459.2C625.7 460 640.3 460 654.8 462.7C669.3 465.3 683.7 470.7 698.2 475.2C712.7 479.7 727.3 483.3 741.8 480.7C756.3 478 770.7 469 785.2 466.3C799.7 463.7 814.3 467.3 829 468.2C843.7 469 858.3 467 872.8 461.5C887.3 456 901.7 447 916.2 444.3C930.7 441.7 945.3 445.3 952.7 447.2L960 449L960 409L952.7 409C945.3 409 930.7 409 916.2 414.5C901.7 420 887.3 431 872.8 435.5C858.3 440 843.7 438 829 437C814.3 436 799.7 436 785.2 441.5C770.7 447 756.3 458 741.8 460.8C727.3 463.7 712.7 458.3 698.2 451.2C683.7 444 669.3 435 654.8 429.5C640.3 424 625.7 422 611 422.8C596.3 423.7 581.7 427.3 567.2 431.8C552.7 436.3 538.3 441.7 523.8 442.5C509.3 443.3 494.7 439.7 480 437C465.3 434.3 450.7 432.7 436.2 427.3C421.7 422 407.3 413 392.8 413C378.3 413 363.7 422 349 425.7C334.3 429.3 319.7 427.7 305.2 431.3C290.7 435 276.3 444 261.8 447.5C247.3 451 232.7 449 218.2 445.3C203.7 441.7 189.3 436.3 174.8 435.5C160.3 434.7 145.7 438.3 131 439.2C116.3 440 101.7 438 87.2 437C72.7 436 58.3 436 43.8 438.8C29.3 441.7 14.7 447.3 7.3 450.2L0 453Z" fill="#5a1658"></path><path d="M0 503L7.3 501.2C14.7 499.3 29.3 495.7 43.8 498.3C58.3 501 72.7 510 87.2 511C101.7 512 116.3 505 131 502.3C145.7 499.7 160.3 501.3 174.8 504.8C189.3 508.3 203.7 513.7 218.2 516.3C232.7 519 247.3 519 261.8 516.3C276.3 513.7 290.7 508.3 305.2 506.7C319.7 505 334.3 507 349 505.2C363.7 503.3 378.3 497.7 392.8 496.7C407.3 495.7 421.7 499.3 436.2 503C450.7 506.7 465.3 510.3 480 511.3C494.7 512.3 509.3 510.7 523.8 509.8C538.3 509 552.7 509 567.2 506.2C581.7 503.3 596.3 497.7 611 497.7C625.7 497.7 640.3 503.3 654.8 507.8C669.3 512.3 683.7 515.7 698.2 517.3C712.7 519 727.3 519 741.8 517.3C756.3 515.7 770.7 512.3 785.2 507.8C799.7 503.3 814.3 497.7 829 494.8C843.7 492 858.3 492 872.8 492C887.3 492 901.7 492 916.2 492C930.7 492 945.3 492 952.7 492L960 492L960 447L952.7 445.2C945.3 443.3 930.7 439.7 916.2 442.3C901.7 445 887.3 454 872.8 459.5C858.3 465 843.7 467 829 466.2C814.3 465.3 799.7 461.7 785.2 464.3C770.7 467 756.3 476 741.8 478.7C727.3 481.3 712.7 477.7 698.2 473.2C683.7 468.7 669.3 463.3 654.8 460.7C640.3 458 625.7 458 611 457.2C596.3 456.3 581.7 454.7 567.2 457.3C552.7 460 538.3 467 523.8 467.8C509.3 468.7 494.7 463.3 480 458.8C465.3 454.3 450.7 450.7 436.2 448C421.7 445.3 407.3 443.7 392.8 447.3C378.3 451 363.7 460 349 461.8C334.3 463.7 319.7 458.3 305.2 459.2C290.7 460 276.3 467 261.8 468.7C247.3 470.3 232.7 466.7 218.2 464.8C203.7 463 189.3 463 174.8 464C160.3 465 145.7 467 131 467C116.3 467 101.7 465 87.2 464C72.7 463 58.3 463 43.8 464C29.3 465 14.7 467 7.3 468L0 469Z" fill="#ad066c"></path><path d="M0 541L7.3 541C14.7 541 29.3 541 43.8 541C58.3 541 72.7 541 87.2 541C101.7 541 116.3 541 131 541C145.7 541 160.3 541 174.8 541C189.3 541 203.7 541 218.2 541C232.7 541 247.3 541 261.8 541C276.3 541 290.7 541 305.2 541C319.7 541 334.3 541 349 541C363.7 541 378.3 541 392.8 541C407.3 541 421.7 541 436.2 541C450.7 541 465.3 541 480 541C494.7 541 509.3 541 523.8 541C538.3 541 552.7 541 567.2 541C581.7 541 596.3 541 611 541C625.7 541 640.3 541 654.8 541C669.3 541 683.7 541 698.2 541C712.7 541 727.3 541 741.8 541C756.3 541 770.7 541 785.2 541C799.7 541 814.3 541 829 541C843.7 541 858.3 541 872.8 541C887.3 541 901.7 541 916.2 541C930.7 541 945.3 541 952.7 541L960 541L960 490L952.7 490C945.3 490 930.7 490 916.2 490C901.7 490 887.3 490 872.8 490C858.3 490 843.7 490 829 492.8C814.3 495.7 799.7 501.3 785.2 505.8C770.7 510.3 756.3 513.7 741.8 515.3C727.3 517 712.7 517 698.2 515.3C683.7 513.7 669.3 510.3 654.8 505.8C640.3 501.3 625.7 495.7 611 495.7C596.3 495.7 581.7 501.3 567.2 504.2C552.7 507 538.3 507 523.8 507.8C509.3 508.7 494.7 510.3 480 509.3C465.3 508.3 450.7 504.7 436.2 501C421.7 497.3 407.3 493.7 392.8 494.7C378.3 495.7 363.7 501.3 349 503.2C334.3 505 319.7 503 305.2 504.7C290.7 506.3 276.3 511.7 261.8 514.3C247.3 517 232.7 517 218.2 514.3C203.7 511.7 189.3 506.3 174.8 502.8C160.3 499.3 145.7 497.7 131 500.3C116.3 503 101.7 510 87.2 509C72.7 508 58.3 499 43.8 496.3C29.3 493.7 14.7 497.3 7.3 499.2L0 501Z" fill="#ff0066"></path></svg>